<mxfile host="65bd71144e">
    <diagram id="IHKaDoGlMXZq13bv_zfR" name="Page-1">
        <mxGraphModel dx="873" dy="304" grid="1" gridSize="10" guides="1" tooltips="1" connect="1" arrows="1" fold="1" page="1" pageScale="1" pageWidth="850" pageHeight="1100" math="0" shadow="0">
            <root>
                <mxCell id="0"/>
                <mxCell id="1" parent="0"/>
                <mxCell id="2" value="&lt;u&gt;cars&lt;br&gt;&lt;/u&gt;&lt;br&gt;manufacturer" style="whiteSpace=wrap;html=1;" parent="1" vertex="1">
                    <mxGeometry x="80" y="120" width="120" height="160" as="geometry"/>
                </mxCell>
                <mxCell id="3" value="&lt;u&gt;colors&lt;br&gt;&lt;/u&gt;&lt;br&gt;color" style="whiteSpace=wrap;html=1;" parent="1" vertex="1">
                    <mxGeometry x="600" y="120" width="120" height="160" as="geometry"/>
                </mxCell>
                <mxCell id="4" value="&lt;u&gt;licenses&lt;/u&gt;&lt;br&gt;&lt;br&gt;license_plate&lt;br&gt;&lt;br&gt;(FK) car_id&lt;br&gt;(FK) color_id" style="whiteSpace=wrap;html=1;" parent="1" vertex="1">
                    <mxGeometry x="350" y="120" width="120" height="160" as="geometry"/>
                </mxCell>
            </root>
        </mxGraphModel>
    </diagram>
</mxfile>